<?xml version="1.0" standalone="no"?>
<!DOCTYPE svg PUBLIC "-//W3C//DTD SVG 20010904//EN"
 "http://www.w3.org/TR/2001/REC-SVG-20010904/DTD/svg10.dtd">
<svg version="1.0" xmlns="http://www.w3.org/2000/svg"
 width="1080.000000pt" height="747.000000pt" viewBox="0 0 1080.000000 747.000000"
 preserveAspectRatio="xMidYMid meet">

<g transform="translate(0.000000,747.000000) scale(0.100000,-0.100000)"
fill="#000000" stroke="none">
<path d="M2698 7463 c1486 -2 3918 -2 5405 0 1486 1 270 2 -2703 2 -2973 0
-4189 -1 -2702 -2z"/>
<path d="M2440 6723 c-221 -21 -497 -124 -725 -271 -182 -116 -394 -318 -512
-489 -24 -34 -113 -182 -113 -188 0 -2 -14 -33 -30 -69 -108 -233 -137 -535
-76 -801 29 -123 38 -152 73 -240 44 -110 78 -179 142 -287 26 -46 59 -103 73
-128 14 -25 49 -85 78 -135 29 -49 70 -120 91 -156 22 -36 39 -75 39 -86 0
-15 -27 -35 -107 -80 -95 -53 -355 -202 -483 -278 -25 -15 -94 -54 -154 -88
-60 -34 -114 -70 -120 -79 -9 -15 8 -36 105 -135 243 -247 446 -475 636 -713
141 -177 249 -324 353 -480 204 -305 358 -615 427 -855 8 -27 22 -90 32 -140
l17 -90 39 0 c48 0 53 12 54 142 1 116 -20 233 -70 386 -101 308 -339 716
-682 1167 -50 66 -67 88 -153 196 -74 92 -253 301 -294 344 -45 47 -92 111
-87 122 5 14 67 52 327 201 96 56 195 113 219 129 25 15 52 28 60 28 10 0 41
-41 75 -97 56 -95 58 -100 52 -150 -13 -107 22 -183 112 -245 42 -29 54 -32
117 -32 74 0 108 12 164 60 48 40 71 93 72 166 2 115 -52 193 -160 232 -54 19
-58 24 -121 140 -48 88 -48 85 30 129 25 13 128 73 230 132 102 59 210 121
240 138 30 17 75 43 100 58 25 15 72 43 105 62 198 112 518 296 715 412 180
106 271 155 287 155 29 0 151 -91 221 -165 221 -231 207 -547 -32 -724 -210
-157 -650 -282 -753 -215 -31 19 -77 18 -96 -4 -43 -48 -1 -195 130 -457 120
-239 175 -311 283 -365 88 -45 225 -20 225 41 0 23 -2 24 -81 24 -75 0 -83 2
-115 30 -54 46 -93 101 -146 205 -53 103 -131 324 -135 380 -3 32 -1 35 27 38
158 17 445 101 588 173 193 98 310 214 370 367 31 81 30 259 -3 347 -47 126
-149 248 -291 347 -61 44 -63 46 -51 63 7 11 20 19 220 133 23 13 49 22 56 19
8 -3 38 -45 66 -94 l53 -88 1 -95 c1 -92 2 -97 36 -143 52 -73 108 -102 195
-102 89 0 148 32 196 107 81 126 28 286 -115 341 -58 22 -60 25 -113 115 -29
51 -53 99 -53 107 0 18 29 37 175 120 66 37 193 110 283 162 89 52 169 93 176
90 8 -3 21 -30 31 -59 34 -109 207 -470 326 -681 22 -38 39 -70 39 -72 0 -7
181 -329 192 -342 17 -21 24 -16 42 30 20 52 20 76 2 102 -14 21 -91 203 -106
252 -4 15 -20 60 -35 98 -77 203 -295 862 -295 890 0 31 -35 85 -63 99 -37 17
-52 13 -161 -53 -45 -27 -115 -68 -156 -91 -41 -23 -93 -53 -115 -65 -22 -13
-117 -68 -211 -123 -265 -155 -251 -150 -284 -94 -28 46 -34 56 -160 277 -156
273 -230 377 -368 519 -190 194 -414 340 -630 412 -157 52 -368 74 -542 57z
m341 -308 c152 -26 365 -130 499 -243 159 -135 265 -262 376 -452 140 -240
218 -376 236 -413 23 -46 18 -54 -56 -95 -28 -16 -100 -57 -161 -92 -60 -35
-134 -76 -164 -93 l-53 -29 -127 30 c-149 36 -217 46 -411 63 -126 11 -168 10
-312 -4 -181 -19 -357 -58 -452 -102 -79 -37 -151 -108 -176 -173 -24 -64 -27
-190 -5 -251 16 -46 58 -106 81 -115 18 -7 44 3 44 18 0 6 -13 45 -30 86 -33
85 -39 175 -16 232 19 45 85 104 144 130 60 25 188 58 272 69 36 4 97 13 135
18 90 13 241 13 330 0 39 -5 106 -14 150 -19 101 -12 217 -41 222 -57 2 -6
-17 -24 -44 -39 -26 -15 -111 -64 -188 -110 -77 -45 -156 -90 -175 -101 -19
-11 -109 -63 -200 -115 -91 -52 -192 -110 -225 -128 -33 -18 -84 -48 -113 -66
-29 -19 -54 -34 -56 -34 -2 0 -43 -23 -92 -51 -49 -29 -102 -59 -119 -69 -16
-9 -99 -56 -182 -105 -84 -48 -159 -85 -166 -82 -12 4 -89 129 -162 262 -15
28 -56 98 -91 157 -126 212 -214 419 -229 538 -3 25 -11 75 -17 113 -14 85 4
268 37 377 62 203 165 367 338 536 140 138 235 205 418 295 253 125 479 160
740 114z m1737 -1647 c3 -29 -22 -86 -47 -106 -30 -24 -86 -43 -116 -40 -26 3
-30 7 -33 37 -4 39 5 51 50 65 18 6 38 22 44 35 16 32 33 42 69 39 24 -3 31
-8 33 -30z m-2438 -1388 c16 -8 17 -15 8 -50 -14 -53 -73 -105 -131 -114 -51
-8 -68 8 -58 56 5 26 14 34 40 42 22 6 41 22 53 43 21 35 51 43 88 23z"/>
<path d="M8755 5273 c-180 -75 -163 -61 -318 -252 -249 -308 -337 -425 -423
-567 -9 -15 -30 -20 -108 -25 -113 -9 -149 -25 -144 -67 2 -17 18 -38 48 -60
25 -19 49 -41 53 -49 13 -21 -4 -60 -67 -156 -31 -47 -56 -88 -56 -90 0 -2
-23 -44 -51 -93 -66 -113 -182 -346 -247 -494 -181 -412 -276 -702 -321 -971
-26 -157 -26 -240 -2 -363 23 -113 65 -184 148 -252 223 -182 539 -97 933 251
145 128 326 334 371 424 8 14 27 48 42 76 39 67 87 217 87 272 0 55 -52 161
-111 224 -21 23 -39 50 -39 59 0 22 129 215 206 310 121 148 290 294 399 346
52 25 72 28 99 18 22 -9 21 -13 -25 -94 -75 -129 -129 -290 -129 -381 0 -94
87 -206 182 -233 48 -14 59 -15 111 -1 129 33 302 140 302 185 0 37 -34 37
-100 1 -70 -38 -226 -91 -270 -91 -81 0 -115 40 -115 137 1 87 68 253 144 356
12 16 39 18 252 23 315 7 420 16 474 44 62 32 132 99 128 124 -4 29 -39 32
-68 5 -57 -49 -111 -66 -244 -79 -77 -6 -132 -8 -138 -2 -5 5 13 26 46 51 69
51 100 107 99 177 -1 147 -114 210 -243 134 -80 -47 -124 -83 -221 -178 -85
-83 -87 -84 -110 -68 -15 10 -44 16 -79 16 -46 0 -65 -6 -106 -31 -73 -47
-169 -124 -257 -207 -43 -41 -81 -71 -84 -69 -2 3 27 53 66 112 39 59 71 112
71 119 0 7 -9 21 -20 31 -23 21 -25 21 -160 -59 -71 -42 -75 -46 -73 -78 3
-47 -11 -87 -79 -223 -87 -174 -225 -404 -270 -448 -42 -41 -45 -62 -13 -83
17 -11 26 -10 64 6 47 22 102 26 130 10 47 -24 65 -156 35 -247 -59 -180 -189
-370 -398 -578 -186 -186 -314 -273 -483 -329 -88 -29 -214 -37 -264 -18 -43
17 -101 74 -121 119 -24 54 -48 191 -48 277 -1 313 162 826 439 1386 46 92
135 251 219 390 153 252 157 257 200 265 21 3 183 14 362 24 179 11 332 22
341 26 17 6 39 46 39 69 0 8 -7 17 -16 20 -9 3 -159 6 -335 6 -262 0 -321 2
-325 14 -6 15 135 215 268 381 165 204 361 385 419 385 9 0 24 9 34 20 15 17
16 24 7 45 -15 33 -56 32 -137 -2z m1052 -1209 c10 -27 -29 -94 -79 -134 -95
-76 -258 -137 -258 -97 0 8 37 50 83 92 139 130 237 183 254 139z"/>
<path d="M7365 5180 c-176 -34 -254 -60 -390 -130 -229 -116 -306 -205 -313
-360 -7 -133 34 -222 232 -501 199 -280 231 -329 231 -346 0 -14 -11 -19 -55
-24 -97 -10 -263 -40 -340 -61 -41 -11 -88 -24 -105 -28 -105 -29 -275 -97
-335 -135 -64 -40 -107 -90 -129 -150 -27 -71 -26 -98 3 -161 43 -92 123 -145
280 -184 80 -20 107 -22 250 -17 168 5 239 18 377 69 142 52 224 118 276 221
32 65 35 77 35 166 1 67 -4 113 -17 153 -10 32 -17 60 -14 62 4 3 107 14 151
15 29 1 49 30 38 52 -10 17 -22 19 -134 19 l-123 0 -44 63 c-24 34 -117 160
-208 281 -196 261 -249 355 -257 459 -6 62 -3 81 15 122 26 58 47 82 121 140
109 84 251 147 408 182 57 13 125 17 262 18 163 0 193 -3 253 -22 165 -52 229
-148 226 -336 -2 -105 7 -131 36 -107 66 55 75 248 17 372 -22 47 -83 107
-137 135 -16 9 -61 24 -100 34 -95 25 -379 24 -510 -1z m-130 -1490 c36 -70
36 -189 0 -259 -51 -103 -202 -191 -405 -239 -118 -28 -352 -21 -458 14 -58
19 -122 77 -134 120 -29 109 194 253 525 338 51 13 112 27 137 31 25 3 59 11
75 16 40 12 138 26 192 28 41 1 43 0 68 -49z"/>
<path d="M3292 4578 c-7 -7 -12 -28 -12 -47 0 -26 -16 -59 -64 -131 -154 -231
-350 -533 -443 -685 -148 -239 -243 -435 -243 -500 0 -41 29 -65 77 -65 39 0
58 25 67 90 15 107 92 256 351 680 32 52 83 133 113 180 176 272 228 352 241
377 17 34 13 62 -14 88 -26 27 -54 32 -73 13z"/>
<path d="M4565 4013 c-26 -14 -39 -15 -98 -5 -127 22 -153 17 -286 -60 -141
-81 -316 -239 -446 -403 -106 -134 -172 -301 -145 -370 26 -69 72 -83 145 -44
89 48 292 212 465 376 36 34 66 58 68 54 2 -5 -17 -54 -42 -109 -56 -125 -128
-341 -176 -534 -9 -34 -19 -49 -34 -54 -20 -5 -106 -37 -151 -55 -11 -4 -69
-27 -130 -50 -60 -23 -114 -46 -119 -50 -6 -5 -16 -9 -24 -9 -21 0 -395 -190
-494 -251 -261 -161 -457 -350 -532 -512 -36 -79 -49 -141 -48 -238 1 -177 59
-304 206 -457 155 -161 335 -255 546 -287 89 -13 111 -13 202 0 147 22 209 41
333 101 243 118 464 330 670 644 164 249 300 515 431 838 30 75 59 146 64 157
5 11 16 40 24 65 8 25 29 83 46 130 18 47 36 101 42 120 5 19 16 41 23 49 28
29 247 52 550 58 250 5 295 3 328 -10 35 -15 37 -18 37 -62 0 -60 -28 -116
-95 -194 -58 -66 -66 -94 -27 -99 15 -2 41 13 83 49 78 68 127 135 134 185 14
85 -65 189 -166 218 -96 29 -351 20 -707 -25 -51 -6 -95 -9 -98 -6 -4 3 6 45
21 94 14 48 37 126 51 173 45 158 55 188 69 206 24 32 18 70 -16 98 -47 40
-73 34 -138 -31 -92 -93 -333 -269 -456 -331 -107 -55 -103 -29 28 190 40 68
111 161 156 205 42 41 43 44 31 73 -17 40 -55 40 -146 -1 -111 -51 -124 -62
-124 -117 0 -38 -11 -69 -60 -162 -103 -194 -150 -299 -150 -329 0 -34 30 -61
67 -61 55 0 325 163 496 299 40 32 83 64 95 70 27 14 27 11 7 -81 -71 -324
-74 -330 -145 -343 -120 -21 -429 -102 -631 -165 -70 -22 -129 -40 -133 -40
-20 0 4 85 86 310 71 193 140 322 366 686 36 58 39 76 16 98 -19 20 -31 20
-69 -1z m-204 -123 c10 -6 19 -19 19 -29 0 -44 -317 -387 -473 -513 -99 -79
-120 -89 -130 -64 -35 91 269 504 434 589 55 28 116 35 150 17z m589 -861 c0
-37 -209 -241 -360 -350 -145 -105 -311 -148 -413 -106 -53 23 -71 64 -64 151
3 38 11 74 16 79 25 25 659 209 814 236 4 0 7 -4 7 -10z m-93 -286 c-14 -81
-221 -529 -347 -753 -60 -106 -187 -304 -234 -365 -242 -313 -462 -488 -691
-551 -128 -34 -316 -29 -450 13 -172 54 -352 194 -436 338 -58 99 -64 121 -64
235 0 86 4 115 23 162 58 145 200 309 389 451 56 42 104 77 106 77 3 0 51 28
108 63 117 71 278 155 419 217 128 57 312 130 328 130 8 0 12 -15 12 -43 0
-71 27 -132 76 -175 116 -103 280 -108 443 -12 67 39 249 179 285 219 26 29
39 26 33 -6z"/>
<path d="M8209 3956 c-21 -7 -49 -23 -64 -34 -21 -17 -41 -22 -86 -22 -75 0
-107 -13 -115 -45 -5 -20 0 -33 20 -54 14 -15 26 -33 26 -39 0 -7 -17 -36 -38
-65 -162 -221 -252 -407 -252 -518 0 -40 6 -55 30 -83 17 -19 44 -37 60 -41
74 -16 241 57 397 174 103 78 276 246 322 314 52 77 91 171 91 221 0 50 16 66
67 66 33 0 53 16 53 42 0 23 -16 26 -193 33 -128 6 -154 10 -195 30 -66 33
-82 36 -123 21z m246 -170 c35 -25 2 -125 -80 -241 -58 -82 -244 -260 -336
-323 -79 -52 -190 -98 -217 -87 -24 9 -8 65 58 198 99 201 275 424 355 452 53
19 195 19 220 1z"/>
<path d="M2698 3 c1486 -2 3918 -2 5405 0 1486 1 270 2 -2703 2 -2973 0 -4189
-1 -2702 -2z"/>
</g>
</svg>
